<svg width="132" height="46" viewBox="0 0 132 46" fill="none" xmlns="http://www.w3.org/2000/svg">
<rect width="131.949" height="45.2397" rx="6" fill="white" fill-opacity="0.05"/>
<rect x="0.62833" y="0.62833" width="130.693" height="43.9831" rx="5.37167" stroke="white" stroke-opacity="0.07" stroke-width="1.25666"/>
<path d="M76.8641 21.005V23.1643H75.5106V24.5803H76.8641V29.3918C76.8641 31.0347 77.6073 31.6919 79.4771 31.6919C79.8057 31.6919 80.1187 31.6527 80.3925 31.6058V30.2054C80.1578 30.2289 80.0091 30.2445 79.7509 30.2445C78.9138 30.2445 78.5461 29.8533 78.5461 28.9615V24.5803H80.3925V23.1643H78.5461V21.005H76.8641Z" fill="white"/>
<path d="M85.1557 31.8092C87.6436 31.8092 89.1691 30.1428 89.1691 27.3811C89.1691 24.6351 87.6357 22.9609 85.1557 22.9609C82.6678 22.9609 81.1344 24.6351 81.1344 27.3811C81.1344 30.1428 82.66 31.8092 85.1557 31.8092ZM85.1557 30.3149C83.6927 30.3149 82.8713 29.2431 82.8713 27.3811C82.8713 25.5348 83.6927 24.4552 85.1557 24.4552C86.6109 24.4552 87.4401 25.5348 87.4401 27.3811C87.4401 29.2353 86.6109 30.3149 85.1557 30.3149Z" fill="white"/>
<path d="M90.4744 31.6449H92.1564V26.6144C92.1564 25.4175 93.0561 24.6116 94.3313 24.6116C94.6286 24.6116 95.1293 24.6664 95.2701 24.7133V23.0548C95.0902 23.0078 94.7695 22.9844 94.5191 22.9844C93.4082 22.9844 92.4615 23.5946 92.219 24.4317H92.0938V23.1252H90.4744V31.6449Z" fill="white"/>
<path d="M99.4466 24.3926C100.691 24.3926 101.504 25.261 101.543 26.5988H97.2404C97.3343 25.2688 98.2027 24.3926 99.4466 24.3926ZM101.535 29.3448C101.223 30.0098 100.526 30.3775 99.5092 30.3775C98.1636 30.3775 97.2952 29.4309 97.2404 27.9366V27.8427H103.257V27.256C103.257 24.5803 101.825 22.9609 99.4544 22.9609C97.0526 22.9609 95.5271 24.6899 95.5271 27.4124C95.5271 30.135 97.0213 31.8092 99.4623 31.8092C101.41 31.8092 102.772 30.8704 103.155 29.3448H101.535Z" fill="white"/>
<path d="M65.8335 28.4987C65.9633 30.5908 67.7067 31.9287 70.3015 31.9287C73.0747 31.9287 74.8099 30.5259 74.8099 28.2879C74.8099 26.5283 73.8207 25.5552 71.4205 24.9957L70.1312 24.6795C68.6067 24.3227 67.9905 23.8443 67.9905 23.0091C67.9905 21.9549 68.9473 21.2657 70.3826 21.2657C71.7448 21.2657 72.6854 21.9387 72.8557 23.0172H74.6234C74.518 21.0468 72.7828 19.6602 70.4069 19.6602C67.8526 19.6602 66.1498 21.0468 66.1498 23.1307C66.1498 24.8498 67.1147 25.8715 69.2311 26.3661L70.7393 26.731C72.2881 27.0959 72.9692 27.6311 72.9692 28.523C72.9692 29.561 71.8989 30.3151 70.4393 30.3151C68.8743 30.3151 67.7878 29.6096 67.6337 28.4987H65.8335Z" fill="white"/>
<path d="M48.4093 22.9844C47.2515 22.9844 46.2501 23.5633 45.7337 24.5334H45.6085V23.1252H43.9891V34.477H45.6711V30.354H45.8041C46.2501 31.2537 47.2123 31.7857 48.425 31.7857C50.5764 31.7857 51.9455 30.088 51.9455 27.3811C51.9455 24.6742 50.5764 22.9844 48.4093 22.9844ZM47.9321 30.2758C46.5239 30.2758 45.6398 29.1649 45.6398 27.389C45.6398 25.6052 46.5239 24.4943 47.9399 24.4943C49.3638 24.4943 50.2165 25.5817 50.2165 27.3811C50.2165 29.1884 49.3638 30.2758 47.9321 30.2758Z" fill="white"/>
<path d="M57.8313 22.9844C56.6734 22.9844 55.672 23.5633 55.1556 24.5334H55.0305V23.1252H53.411V34.477H55.0931V30.354H55.226C55.672 31.2537 56.6343 31.7857 57.8469 31.7857C59.9983 31.7857 61.3675 30.088 61.3675 27.3811C61.3675 24.6742 59.9983 22.9844 57.8313 22.9844ZM57.354 30.2758C55.9458 30.2758 55.0618 29.1649 55.0618 27.389C55.0618 25.6052 55.9458 24.4943 57.3618 24.4943C58.7857 24.4943 59.6385 25.5817 59.6385 27.3811C59.6385 29.1884 58.7857 30.2758 57.354 30.2758Z" fill="white"/>
<path d="M40.9712 31.6449H42.9011L38.6764 19.944H36.7222L32.4976 31.6449H34.3626L35.441 28.5393H39.9009L40.9712 31.6449ZM37.6061 22.0685H37.7439L39.4387 27.0148H35.9032L37.6061 22.0685Z" fill="white"/>
<path d="M33.6274 11.1176V16.7622H35.6654C37.3475 16.7622 38.3215 15.7256 38.3215 13.9223C38.3215 12.1464 37.3397 11.1176 35.6654 11.1176H33.6274ZM34.5037 11.9156H35.5677C36.7373 11.9156 37.4296 12.6588 37.4296 13.934C37.4296 15.2288 36.749 15.9642 35.5677 15.9642H34.5037V11.9156Z" fill="white"/>
<path d="M41.3046 16.8443C42.5485 16.8443 43.3113 16.0111 43.3113 14.6303C43.3113 13.2573 42.5446 12.4202 41.3046 12.4202C40.0607 12.4202 39.294 13.2573 39.294 14.6303C39.294 16.0111 40.0567 16.8443 41.3046 16.8443ZM41.3046 16.0972C40.5731 16.0972 40.1624 15.5613 40.1624 14.6303C40.1624 13.7071 40.5731 13.1673 41.3046 13.1673C42.0322 13.1673 42.4468 13.7071 42.4468 14.6303C42.4468 15.5574 42.0322 16.0972 41.3046 16.0972Z" fill="white"/>
<path d="M49.8071 12.5023H48.9661L48.2072 15.753H48.1407L47.2645 12.5023H46.4587L45.5824 15.753H45.5199L44.7571 12.5023H43.9043L45.0778 16.7622H45.9423L46.8185 13.625H46.885L47.7652 16.7622H48.6375L49.8071 12.5023Z" fill="white"/>
<path d="M50.7756 16.7622H51.6167V14.2704C51.6167 13.6054 52.0117 13.1908 52.6337 13.1908C53.2557 13.1908 53.553 13.5311 53.553 14.2157V16.7622H54.394V14.0044C54.394 12.9913 53.8698 12.4202 52.9193 12.4202C52.2777 12.4202 51.8553 12.7057 51.648 13.1791H51.5854V12.5023H50.7756V16.7622Z" fill="white"/>
<path d="M55.7185 16.7622H56.5595V10.8398H55.7185V16.7622Z" fill="white"/>
<path d="M59.7225 16.8443C60.9665 16.8443 61.7292 16.0111 61.7292 14.6303C61.7292 13.2573 60.9625 12.4202 59.7225 12.4202C58.4786 12.4202 57.7119 13.2573 57.7119 14.6303C57.7119 16.0111 58.4747 16.8443 59.7225 16.8443ZM59.7225 16.0972C58.991 16.0972 58.5803 15.5613 58.5803 14.6303C58.5803 13.7071 58.991 13.1673 59.7225 13.1673C60.4501 13.1673 60.8648 13.7071 60.8648 14.6303C60.8648 15.5574 60.4501 16.0972 59.7225 16.0972Z" fill="white"/>
<path d="M64.2351 16.1246C63.7774 16.1246 63.4449 15.9016 63.4449 15.5183C63.4449 15.1427 63.7109 14.9432 64.2977 14.9041L65.3382 14.8376V15.1936C65.3382 15.7217 64.8688 16.1246 64.2351 16.1246ZM64.0199 16.8326C64.5793 16.8326 65.0448 16.5901 65.2991 16.1637H65.3656V16.7622H66.1753V13.8519C66.1753 12.9522 65.5729 12.4202 64.505 12.4202C63.5388 12.4202 62.8503 12.8896 62.7643 13.6211H63.5779C63.6718 13.3199 63.9965 13.1478 64.4659 13.1478C65.0409 13.1478 65.3382 13.402 65.3382 13.8519V14.2196L64.1842 14.2861C63.1711 14.3487 62.6 14.7907 62.6 15.5574C62.6 16.3358 63.1985 16.8326 64.0199 16.8326Z" fill="white"/>
<path d="M69.0293 16.8326C69.6161 16.8326 70.1128 16.5549 70.3671 16.0894H70.4336V16.7622H71.2394V10.8398H70.3984V13.1791H70.3358C70.105 12.7096 69.6121 12.4319 69.0293 12.4319C67.9536 12.4319 67.2612 13.2847 67.2612 14.6303C67.2612 15.9798 67.9457 16.8326 69.0293 16.8326ZM69.2679 13.1869C69.972 13.1869 70.414 13.7463 70.414 14.6342C70.414 15.5261 69.9759 16.0776 69.2679 16.0776C68.556 16.0776 68.1296 15.5339 68.1296 14.6303C68.1296 13.7345 68.5599 13.1869 69.2679 13.1869Z" fill="white"/>
<path d="M76.6931 16.8443C77.9371 16.8443 78.6999 16.0111 78.6999 14.6303C78.6999 13.2573 77.9332 12.4202 76.6931 12.4202C75.4492 12.4202 74.6825 13.2573 74.6825 14.6303C74.6825 16.0111 75.4453 16.8443 76.6931 16.8443ZM76.6931 16.0972C75.9616 16.0972 75.5509 15.5613 75.5509 14.6303C75.5509 13.7071 75.9616 13.1673 76.6931 13.1673C77.4207 13.1673 77.8354 13.7071 77.8354 14.6303C77.8354 15.5574 77.4207 16.0972 76.6931 16.0972Z" fill="white"/>
<path d="M79.8131 16.7622H80.6541V14.2704C80.6541 13.6054 81.0492 13.1908 81.6712 13.1908C82.2932 13.1908 82.5905 13.5311 82.5905 14.2157V16.7622H83.4315V14.0044C83.4315 12.9913 82.9073 12.4202 81.9567 12.4202C81.3152 12.4202 80.8928 12.7057 80.6854 13.1791H80.6229V12.5023H79.8131V16.7622Z" fill="white"/>
<path d="M87.3049 11.4422V12.5219H86.6281V13.2299H87.3049V15.6356C87.3049 16.4571 87.6765 16.7857 88.6114 16.7857C88.7757 16.7857 88.9321 16.7661 89.069 16.7426V16.0424C88.9517 16.0542 88.8774 16.062 88.7483 16.062C88.3297 16.062 88.1459 15.8664 88.1459 15.4205V13.2299H89.069V12.5219H88.1459V11.4422H87.3049Z" fill="white"/>
<path d="M90.198 16.7622H91.039V14.2743C91.039 13.6289 91.4223 13.1947 92.1108 13.1947C92.7054 13.1947 93.0222 13.5389 93.0222 14.2196V16.7622H93.8632V14.0122C93.8632 12.9991 93.3039 12.4241 92.3963 12.4241C91.7548 12.4241 91.305 12.7096 91.0977 13.1869H91.0312V10.8398H90.198V16.7622Z" fill="white"/>
<path d="M96.8972 13.136C97.5191 13.136 97.926 13.5702 97.9455 14.2391H95.7941C95.841 13.5741 96.2752 13.136 96.8972 13.136ZM97.9416 15.6121C97.7851 15.9446 97.437 16.1285 96.9285 16.1285C96.2556 16.1285 95.8214 15.6552 95.7941 14.908V14.8611H98.8022V14.5677C98.8022 13.2299 98.0863 12.4202 96.9011 12.4202C95.7002 12.4202 94.9374 13.2847 94.9374 14.6459C94.9374 16.0072 95.6845 16.8443 96.905 16.8443C97.879 16.8443 98.5597 16.3749 98.7513 15.6121H97.9416Z" fill="white"/>
<path d="M23.3712 22.0414C23.3916 20.457 24.2425 18.9579 25.5922 18.1281C24.7407 16.912 23.3145 16.1409 21.8306 16.0945C20.2479 15.9284 18.7136 17.0415 17.9071 17.0415C17.085 17.0415 15.8432 16.111 14.5061 16.1385C12.7632 16.1948 11.1383 17.1857 10.2904 18.7095C8.4676 21.8654 9.82723 26.5034 11.5733 29.0544C12.4469 30.3035 13.4679 31.6988 14.8038 31.6494C16.1111 31.5951 16.5994 30.8157 18.1774 30.8157C19.7408 30.8157 20.1988 31.6494 21.5619 31.6179C22.9647 31.5951 23.8485 30.3632 24.6915 29.1022C25.3191 28.2122 25.8021 27.2285 26.1226 26.1876C24.474 25.4903 23.3731 23.8313 23.3712 22.0414Z" fill="white"/>
<path d="M20.7966 14.4168C21.5615 13.4987 21.9383 12.3185 21.847 11.127C20.6785 11.2497 19.5991 11.8082 18.8239 12.6911C18.0659 13.5538 17.6714 14.7132 17.746 15.8592C18.9149 15.8713 20.0641 15.3279 20.7966 14.4168Z" fill="white"/>
</svg>
