<svg width="18" height="18" viewBox="0 0 18 18" fill="none" xmlns="http://www.w3.org/2000/svg">
<path d="M5.35742 14.2233C5.3551 14.2228 5.35291 14.2218 5.35059 14.2213C5.3529 14.2217 5.35508 14.2228 5.35742 14.2233ZM12.6475 14.2223C12.6458 14.2226 12.6442 14.223 12.6426 14.2233C12.6442 14.223 12.6458 14.2226 12.6475 14.2223ZM12.7891 14.1813C12.7669 14.1898 12.7442 14.1962 12.7217 14.2028C12.7451 14.196 12.7677 14.1895 12.7891 14.1813ZM5.27441 14.2018C5.24754 14.1938 5.2207 14.1853 5.19434 14.1744C5.21589 14.1836 5.24313 14.1923 5.27441 14.2018ZM1.45898 4.46741C1.47977 4.60109 1.51807 4.77813 1.60059 4.99573V4.9967L4.70605 13.6891L4.70898 13.6989L4.71289 13.7086C4.78723 13.8945 4.93241 14.0152 5.00977 14.0709C5.05602 14.1042 5.11078 14.1361 5.1709 14.1637C4.99816 14.087 4.84112 13.9555 4.75 13.7994L4.69922 13.691L1.5957 5.00452H1.59668C1.52151 4.78931 1.47974 4.612 1.45898 4.46741ZM12.8994 14.1295C12.8834 14.1383 12.867 14.1461 12.8506 14.1539C12.8678 14.1457 12.8842 14.138 12.8994 14.1295ZM16.4834 4.61487C16.4612 4.77465 16.4153 4.97146 16.3301 5.21155L13.3018 13.691C13.2602 13.8056 13.1807 13.9119 13.082 14.0006C13.1067 13.9781 13.1312 13.9539 13.1543 13.9274C13.1958 13.8796 13.2545 13.7985 13.293 13.6881L13.2949 13.6891L16.3242 5.2135C16.4139 4.96897 16.461 4.77048 16.4834 4.61487ZM9.45605 1.75647C9.5548 1.87721 9.66812 2.05582 9.77148 2.32874L11.0908 5.84534L11.0928 5.84924C11.1507 5.99995 11.289 6.26588 11.5977 6.36877C11.6689 6.39249 11.7382 6.40265 11.8047 6.40491C11.7358 6.40405 11.6692 6.39523 11.6074 6.37659C11.4221 6.32052 11.2459 6.1777 11.1309 5.95178L11.085 5.85022L9.7666 2.33752C9.66279 2.05849 9.55351 1.87825 9.45605 1.75647ZM11.8877 6.40198C11.8766 6.40303 11.8655 6.40433 11.8545 6.40491C11.8657 6.40451 11.8767 6.40288 11.8877 6.40198ZM6.48145 6.33459C6.47651 6.3368 6.47177 6.33935 6.4668 6.34143C6.47178 6.33926 6.47656 6.33685 6.48145 6.33459ZM6.58105 6.27991C6.56647 6.28941 6.55214 6.29891 6.53711 6.30725C6.55236 6.29859 6.56684 6.28936 6.58105 6.27991ZM15.8438 3.87073L15.7598 3.89905C15.6235 3.9445 15.4638 4.02044 15.2744 4.14124L15.0791 4.27405L12.3379 6.22913C12.301 6.25497 12.2629 6.27659 12.2256 6.29651C12.2654 6.27411 12.3015 6.24973 12.334 6.22522L15.0791 4.26819L15.0801 4.26721C15.4121 4.02935 15.6634 3.91842 15.8438 3.87073ZM8.55371 1.74377C8.45493 1.86405 8.34283 2.04569 8.23535 2.32678L8.2334 2.32971L6.91406 5.84729L6.91211 5.85022C6.84483 6.03285 6.73611 6.17045 6.60742 6.26233C6.76766 6.14556 6.85803 5.98144 6.9082 5.84436L6.90918 5.84534L8.22852 2.32678C8.33521 2.04548 8.45261 1.86418 8.55371 1.74377ZM16.4932 4.52209C16.491 4.54647 16.4888 4.57185 16.4854 4.59827C16.489 4.57159 16.4908 4.54615 16.4932 4.52209ZM12.9941 14.0709C12.9896 14.0742 12.9851 14.0775 12.9805 14.0807C12.9853 14.0773 12.9898 14.074 12.9941 14.0709Z" fill="#D0D3D9" stroke="#D0D3D9" stroke-width="1.125"/>
<mask id="path-2-inside-1_2382_3168" fill="white">
<path d="M13.125 17.0625H4.875C4.5675 17.0625 4.3125 16.8075 4.3125 16.5C4.3125 16.1925 4.5675 15.9375 4.875 15.9375H13.125C13.4325 15.9375 13.6875 16.1925 13.6875 16.5C13.6875 16.8075 13.4325 17.0625 13.125 17.0625Z"/>
</mask>
<path d="M13.125 17.0625H4.875C4.5675 17.0625 4.3125 16.8075 4.3125 16.5C4.3125 16.1925 4.5675 15.9375 4.875 15.9375H13.125C13.4325 15.9375 13.6875 16.1925 13.6875 16.5C13.6875 16.8075 13.4325 17.0625 13.125 17.0625Z" fill="#D0D3D9"/>
<path d="M13.125 17.0625V15.9375H4.875V17.0625V18.1875H13.125V17.0625ZM4.875 17.0625V15.9375C5.18882 15.9375 5.4375 16.1862 5.4375 16.5H4.3125H3.1875C3.1875 17.4288 3.94618 18.1875 4.875 18.1875V17.0625ZM4.3125 16.5H5.4375C5.4375 16.8138 5.18882 17.0625 4.875 17.0625V15.9375V14.8125C3.94618 14.8125 3.1875 15.5712 3.1875 16.5H4.3125ZM4.875 15.9375V17.0625H13.125V15.9375V14.8125H4.875V15.9375ZM13.125 15.9375V17.0625C12.8112 17.0625 12.5625 16.8138 12.5625 16.5H13.6875H14.8125C14.8125 15.5712 14.0538 14.8125 13.125 14.8125V15.9375ZM13.6875 16.5H12.5625C12.5625 16.1862 12.8112 15.9375 13.125 15.9375V17.0625V18.1875C14.0538 18.1875 14.8125 17.4288 14.8125 16.5H13.6875Z" fill="#D0D3D9" mask="url(#path-2-inside-1_2382_3168)"/>
</svg>
