<svg width="38" height="38" viewBox="0 0 38 38" fill="none" xmlns="http://www.w3.org/2000/svg">
<path d="M0 19C0 8.50659 8.50659 0 19 0C29.4934 0 38 8.50659 38 19C38 29.4934 29.4934 38 19 38C8.50659 38 0 29.4934 0 19Z" fill="url(#paint0_linear_329_1889)"/>
<path d="M19 0.5C29.2173 0.5 37.5 8.78273 37.5 19C37.5 29.2173 29.2173 37.5 19 37.5C8.78273 37.5 0.5 29.2173 0.5 19C0.5 8.78273 8.78273 0.5 19 0.5Z" stroke="#51A2FF" stroke-opacity="0.3"/>
<path d="M23.1233 15.5103C23.1233 15.1605 22.8397 14.877 22.4899 14.877H16.7899C16.4402 14.877 16.1566 15.1605 16.1566 15.5103C16.1566 15.8601 16.4402 16.1436 16.7899 16.1436H21.8566V21.2103C21.8566 21.5601 22.1402 21.8436 22.4899 21.8436C22.8397 21.8436 23.1233 21.5601 23.1233 21.2103V15.5103ZM15.3246 22.6757L15.7725 23.1235L22.9378 15.9582L22.4899 15.5103L22.0421 15.0625L14.8768 22.2278L15.3246 22.6757Z" fill="white"/>
<defs>
<linearGradient id="paint0_linear_329_1889" x1="19" y1="0" x2="19" y2="38" gradientUnits="userSpaceOnUse">
<stop stop-color="#007AFF"/>
<stop offset="1" stop-color="#0C53C8"/>
</linearGradient>
</defs>
</svg>
