<svg width="60" height="60" viewBox="0 0 60 60" fill="none" xmlns="http://www.w3.org/2000/svg">
<g filter="url(#filter0_i_707_4739)">
<path d="M36.8636 14H23.7076C17.9876 14 14.5713 17.4147 14.5713 23.1363V36.2923C14.5713 42.0123 17.9876 45.4286 23.7076 45.4286H36.8636C42.5836 45.4286 45.9999 42.0139 45.9999 36.2923V23.1363C45.9999 17.4163 42.5836 14 36.8636 14ZM29.6161 37.2399C29.6169 37.4702 29.5586 37.6969 29.4467 37.8983C29.3349 38.0996 29.1733 38.2689 28.9773 38.39C28.7813 38.5111 28.5576 38.5799 28.3275 38.5898C28.0973 38.5997 27.8685 38.5505 27.6629 38.4467L22.1629 35.6967C21.77 35.5022 21.4395 35.2015 21.2087 34.8288C20.9779 34.4561 20.8561 34.0262 20.857 33.5879V28.3911C20.857 28.1609 20.9158 27.9345 21.028 27.7334C21.1401 27.5324 21.3019 27.3633 21.4978 27.2424C21.6937 27.1214 21.9172 27.0526 22.1473 27.0424C22.3773 27.0323 22.606 27.0811 22.8119 27.1843L28.3119 29.9343C28.7049 30.1289 29.0355 30.4298 29.266 30.8028C29.4966 31.1759 29.6179 31.6062 29.6161 32.0447V37.2399ZM29.2861 28.8264L23.3713 25.6364C23.1601 25.5147 22.9848 25.3395 22.8628 25.1285C22.7409 24.9174 22.6767 24.678 22.6767 24.4343C22.6767 24.1906 22.7409 23.9511 22.8628 23.7401C22.9848 23.5291 23.1601 23.3539 23.3713 23.2321L29.2861 20.0421C29.5931 19.8761 29.9366 19.7892 30.2856 19.7892C30.6346 19.7892 30.978 19.8761 31.285 20.0421L37.1999 23.2321C37.411 23.3539 37.5864 23.5291 37.7083 23.7401C37.8303 23.9511 37.8945 24.1906 37.8945 24.4343C37.8945 24.678 37.8303 24.9174 37.7083 25.1285C37.5864 25.3395 37.411 25.5147 37.1999 25.6364L31.285 28.8264C30.978 28.9924 30.6346 29.0794 30.2856 29.0794C29.9366 29.0794 29.5931 28.9924 29.2861 28.8264ZM39.7141 33.5863C39.7158 34.025 39.5945 34.4555 39.364 34.8288C39.1334 35.2021 38.8029 35.5033 38.4099 35.6983L32.9099 38.4483C32.7039 38.5515 32.475 38.6004 32.2449 38.5901C32.0147 38.5799 31.791 38.5109 31.5951 38.3898C31.3991 38.2687 31.2374 38.0994 31.1254 37.8981C31.0134 37.6968 30.9547 37.4702 30.955 37.2399V32.0431C30.9535 31.6046 31.0748 31.1745 31.3054 30.8014C31.5359 30.4284 31.8664 30.1274 32.2593 29.9327L37.7593 27.1827C37.9651 27.0795 38.1939 27.0307 38.4239 27.0409C38.6539 27.051 38.8775 27.1199 39.0734 27.2408C39.2693 27.3617 39.431 27.5308 39.5432 27.7319C39.6553 27.9329 39.7142 28.1593 39.7141 28.3896V33.5863Z" fill="url(#paint0_linear_707_4739)"/>
</g>
<g filter="url(#filter1_i_707_4739)">
<path d="M60 30C60 35.9334 58.2405 41.7336 54.9441 46.6671C51.6477 51.6006 46.9623 55.4458 41.4805 57.7164C35.9987 59.987 29.9667 60.5811 24.1473 59.4236C18.3279 58.266 12.9824 55.4088 8.78681 51.2132C4.59123 47.0176 1.73401 41.6721 0.576455 35.8527C-0.581102 30.0333 0.0129986 24.0013 2.28363 18.5195C4.55426 13.0377 8.39943 8.35235 13.3329 5.05591C18.2664 1.75947 24.0666 0 30 0C37.9549 0.00529795 45.5824 3.1677 51.2074 8.79265C56.8323 14.4176 59.9947 22.0451 60 30Z" fill="url(#paint1_linear_707_4739)"/>
</g>
<path d="M30 0.571289C37.8033 0.576583 45.2859 3.67851 50.8037 9.19629C56.3215 14.7141 59.4234 22.1967 59.4287 30C59.4287 35.8204 57.7024 41.5101 54.4688 46.3496C51.2351 51.1891 46.6391 54.9611 41.2617 57.1885C35.8844 59.4158 29.9673 59.9988 24.2588 58.8633C18.5502 57.7278 13.3061 54.9252 9.19043 50.8096C5.07477 46.6939 2.27223 41.4498 1.13672 35.7412C0.00123278 30.0327 0.584187 24.1156 2.81152 18.7383C5.03889 13.3609 8.81093 8.7649 13.6504 5.53125C18.3388 2.39859 23.825 0.680406 29.4551 0.576172L30 0.571289Z" stroke="url(#paint2_linear_707_4739)" stroke-opacity="0.1" stroke-width="1.14286"/>
<defs>
<filter id="filter0_i_707_4739" x="14.5713" y="14" width="31.4287" height="36" filterUnits="userSpaceOnUse" color-interpolation-filters="sRGB">
<feFlood flood-opacity="0" result="BackgroundImageFix"/>
<feBlend mode="normal" in="SourceGraphic" in2="BackgroundImageFix" result="shape"/>
<feColorMatrix in="SourceAlpha" type="matrix" values="0 0 0 0 0 0 0 0 0 0 0 0 0 0 0 0 0 0 127 0" result="hardAlpha"/>
<feOffset dy="4.57143"/>
<feGaussianBlur stdDeviation="2.28571"/>
<feComposite in2="hardAlpha" operator="arithmetic" k2="-1" k3="1"/>
<feColorMatrix type="matrix" values="0 0 0 0 0 0 0 0 0 0 0 0 0 0 0 0 0 0 0.25 0"/>
<feBlend mode="normal" in2="shape" result="effect1_innerShadow_707_4739"/>
</filter>
<filter id="filter1_i_707_4739" x="0" y="0" width="60" height="64.5714" filterUnits="userSpaceOnUse" color-interpolation-filters="sRGB">
<feFlood flood-opacity="0" result="BackgroundImageFix"/>
<feBlend mode="normal" in="SourceGraphic" in2="BackgroundImageFix" result="shape"/>
<feColorMatrix in="SourceAlpha" type="matrix" values="0 0 0 0 0 0 0 0 0 0 0 0 0 0 0 0 0 0 127 0" result="hardAlpha"/>
<feOffset dy="4.57143"/>
<feGaussianBlur stdDeviation="2.28571"/>
<feComposite in2="hardAlpha" operator="arithmetic" k2="-1" k3="1"/>
<feColorMatrix type="matrix" values="0 0 0 0 1 0 0 0 0 1 0 0 0 0 1 0 0 0 0.05 0"/>
<feBlend mode="normal" in2="shape" result="effect1_innerShadow_707_4739"/>
</filter>
<linearGradient id="paint0_linear_707_4739" x1="16.9944" y1="43.0054" x2="43.5767" y2="16.4231" gradientUnits="userSpaceOnUse">
<stop stop-color="#51A2FF"/>
<stop offset="1" stop-color="#007AFF"/>
</linearGradient>
<linearGradient id="paint1_linear_707_4739" x1="4.20801" y1="-0.735999" x2="52.746" y2="57.108" gradientUnits="userSpaceOnUse">
<stop stop-color="white" stop-opacity="0.2"/>
<stop offset="0.3" stop-color="white" stop-opacity="0.1"/>
<stop offset="0.5" stop-opacity="0.1"/>
<stop offset="0.8" stop-color="#007AFF" stop-opacity="0.1"/>
<stop offset="1" stop-color="#007AFF" stop-opacity="0.4"/>
</linearGradient>
<linearGradient id="paint2_linear_707_4739" x1="30" y1="0" x2="30" y2="60" gradientUnits="userSpaceOnUse">
<stop stop-color="white"/>
<stop offset="1" stop-color="white" stop-opacity="0"/>
</linearGradient>
</defs>
</svg>
