<svg width="132" height="46" viewBox="0 0 132 46" fill="none" xmlns="http://www.w3.org/2000/svg">
<rect width="131.949" height="45.2397" rx="6" fill="white" fill-opacity="0.05"/>
<rect x="0.62833" y="0.62833" width="130.693" height="43.9831" rx="5.37167" stroke="white" stroke-opacity="0.07" stroke-width="1.25666"/>
<g filter="url(#filter0_ii_329_3441)">
<path d="M11.7464 11.0141C11.4722 11.3044 11.3101 11.7549 11.3101 12.3383V33.1825C11.3101 33.7669 11.4722 34.2164 11.7464 34.5067L11.8162 34.5746L23.4927 22.898V22.7604V22.6228L11.8162 10.9453L11.7464 11.0141Z" fill="url(#paint0_linear_329_3441)"/>
<path d="M27.3845 26.7906L23.4929 22.8972V22.7596V22.622L27.3854 18.7295L27.4731 18.7794L32.0847 21.3996C33.4014 22.1479 33.4014 23.3722 32.0847 24.1215L27.4731 26.7416L27.3845 26.7906Z" fill="url(#paint1_linear_329_3441)"/>
<g filter="url(#filter1_i_329_3441)">
<path d="M27.4718 26.7418L23.4907 22.7607L11.7454 34.5071C12.1789 34.967 12.8961 35.0235 13.7039 34.5655L27.4718 26.7418Z" fill="url(#paint2_linear_329_3441)"/>
</g>
<path d="M27.4718 18.7791L13.7039 10.9564C12.8961 10.4974 12.1789 10.5549 11.7454 11.0148L23.4917 22.7611L27.4718 18.7791Z" fill="url(#paint3_linear_329_3441)"/>
</g>
<path d="M46.3295 13.0802C46.3295 13.87 46.0957 14.4986 45.6273 14.968C45.0957 15.526 44.4021 15.8049 43.5501 15.8049C42.7339 15.8049 42.0392 15.5222 41.469 14.9567C40.8979 14.3903 40.6123 13.689 40.6123 12.8521C40.6123 12.0142 40.8979 11.313 41.469 10.7475C42.0392 10.1811 42.7339 9.89833 43.5501 9.89833C43.9553 9.89833 44.3427 9.97749 44.7103 10.1349C45.0788 10.2932 45.3738 10.5034 45.5943 10.7664L45.0976 11.264C44.7235 10.8163 44.2079 10.5929 43.5491 10.5929C42.9535 10.5929 42.4389 10.8022 42.0044 11.2206C41.5699 11.6391 41.3531 12.1829 41.3531 12.8512C41.3531 13.5194 41.5699 14.0632 42.0044 14.4817C42.4389 14.9001 42.9535 15.1094 43.5491 15.1094C44.1806 15.1094 44.7074 14.8992 45.1287 14.4779C45.4021 14.2036 45.5604 13.8219 45.6028 13.3328H43.5491V12.6532H46.2889C46.3172 12.8012 46.3295 12.9435 46.3295 13.0802Z" fill="white"/>
<path d="M50.6745 10.7183H48.0996V12.511H50.4219V13.1905H48.0996V14.9831H50.6745V15.6787H47.3729V10.0237H50.6745V10.7183Z" fill="white"/>
<path d="M53.7384 15.6787H53.0117V10.7183H51.4321V10.0237H55.318V10.7183H53.7384V15.6787Z" fill="white"/>
<path d="M58.1294 15.6787V10.0237H58.8561V15.6787H58.1294Z" fill="white"/>
<path d="M62.0787 15.6787H61.352V10.7183H59.7724V10.0237H63.6583V10.7183H62.0787V15.6787Z" fill="white"/>
<path d="M71.0142 14.9483C70.4582 15.5194 69.7673 15.805 68.9407 15.805C68.1142 15.805 67.4233 15.5194 66.8682 14.9483C66.3121 14.3771 66.035 13.6778 66.035 12.8512C66.035 12.0246 66.3121 11.3253 66.8682 10.7542C67.4233 10.183 68.1142 9.89648 68.9407 9.89648C69.7626 9.89648 70.4525 10.1839 71.0105 10.7579C71.5684 11.3319 71.8474 12.0293 71.8474 12.8512C71.8474 13.6778 71.5694 14.3771 71.0142 14.9483ZM67.4045 14.4742C67.8229 14.8983 68.3347 15.1094 68.9407 15.1094C69.5468 15.1094 70.0595 14.8974 70.477 14.4742C70.8955 14.0501 71.1057 13.5091 71.1057 12.8512C71.1057 12.1933 70.8955 11.6524 70.477 11.2282C70.0595 10.8041 69.5468 10.593 68.9407 10.593C68.3347 10.593 67.8229 10.805 67.4045 11.2282C66.987 11.6524 66.7768 12.1933 66.7768 12.8512C66.7768 13.5091 66.987 14.0501 67.4045 14.4742Z" fill="white"/>
<path d="M72.8672 15.6787V10.0237H73.7513L76.4996 14.4224H76.5307L76.4996 13.3328V10.0237H77.2262V15.6787H76.4675L73.592 11.0661H73.5609L73.592 12.1557V15.6787H72.8672Z" fill="white"/>
<path d="M46.3295 13.0802C46.3295 13.87 46.0957 14.4986 45.6273 14.968C45.0957 15.526 44.4021 15.8049 43.5501 15.8049C42.7339 15.8049 42.0392 15.5222 41.469 14.9567C40.8979 14.3903 40.6123 13.689 40.6123 12.8521C40.6123 12.0142 40.8979 11.313 41.469 10.7475C42.0392 10.1811 42.7339 9.89833 43.5501 9.89833C43.9553 9.89833 44.3427 9.97749 44.7103 10.1349C45.0788 10.2932 45.3738 10.5034 45.5943 10.7664L45.0976 11.264C44.7235 10.8163 44.2079 10.5929 43.5491 10.5929C42.9535 10.5929 42.4389 10.8022 42.0044 11.2206C41.5699 11.6391 41.3531 12.1829 41.3531 12.8512C41.3531 13.5194 41.5699 14.0632 42.0044 14.4817C42.4389 14.9001 42.9535 15.1094 43.5491 15.1094C44.1806 15.1094 44.7074 14.8992 45.1287 14.4779C45.4021 14.2036 45.5604 13.8219 45.6028 13.3328H43.5491V12.6532H46.2889C46.3172 12.8012 46.3295 12.9435 46.3295 13.0802Z" stroke="white" stroke-width="0.188499" stroke-miterlimit="10"/>
<path d="M50.6745 10.7183H48.0996V12.511H50.4219V13.1905H48.0996V14.9831H50.6745V15.6787H47.3729V10.0237H50.6745V10.7183Z" stroke="white" stroke-width="0.188499" stroke-miterlimit="10"/>
<path d="M53.7384 15.6787H53.0117V10.7183H51.4321V10.0237H55.318V10.7183H53.7384V15.6787Z" stroke="white" stroke-width="0.188499" stroke-miterlimit="10"/>
<path d="M58.1294 15.6787V10.0237H58.8561V15.6787H58.1294Z" stroke="white" stroke-width="0.188499" stroke-miterlimit="10"/>
<path d="M62.0787 15.6787H61.352V10.7183H59.7724V10.0237H63.6583V10.7183H62.0787V15.6787Z" stroke="white" stroke-width="0.188499" stroke-miterlimit="10"/>
<path d="M71.0142 14.9483C70.4582 15.5194 69.7673 15.805 68.9407 15.805C68.1142 15.805 67.4233 15.5194 66.8682 14.9483C66.3121 14.3771 66.035 13.6778 66.035 12.8512C66.035 12.0246 66.3121 11.3253 66.8682 10.7542C67.4233 10.183 68.1142 9.89648 68.9407 9.89648C69.7626 9.89648 70.4525 10.1839 71.0105 10.7579C71.5684 11.3319 71.8474 12.0293 71.8474 12.8512C71.8474 13.6778 71.5694 14.3771 71.0142 14.9483ZM67.4045 14.4742C67.8229 14.8983 68.3347 15.1094 68.9407 15.1094C69.5468 15.1094 70.0595 14.8974 70.477 14.4742C70.8955 14.0501 71.1057 13.5091 71.1057 12.8512C71.1057 12.1933 70.8955 11.6524 70.477 11.2282C70.0595 10.8041 69.5468 10.593 68.9407 10.593C68.3347 10.593 67.8229 10.805 67.4045 11.2282C66.987 11.6524 66.7768 12.1933 66.7768 12.8512C66.7768 13.5091 66.987 14.0501 67.4045 14.4742Z" stroke="white" stroke-width="0.188499" stroke-miterlimit="10"/>
<path d="M72.8672 15.6787V10.0237H73.7513L76.4996 14.4224H76.5307L76.4996 13.3328V10.0237H77.2262V15.6787H76.4675L73.592 11.0661H73.5609L73.592 12.1557V15.6787H72.8672Z" stroke="white" stroke-width="0.188499" stroke-miterlimit="10"/>
<path d="M66.1482 24.0087C63.9315 24.0087 62.1247 25.6948 62.1247 28.0171C62.1247 30.3253 63.9315 32.0255 66.1482 32.0255C68.3659 32.0255 70.1727 30.3253 70.1727 28.0171C70.1718 25.6948 68.365 24.0087 66.1482 24.0087ZM66.1482 30.4478C64.9334 30.4478 63.8863 29.4459 63.8863 28.0181C63.8863 26.5751 64.9343 25.5883 66.1482 25.5883C67.3631 25.5883 68.4102 26.5751 68.4102 28.0181C68.4102 29.445 67.3631 30.4478 66.1482 30.4478ZM57.3699 24.0087C55.1531 24.0087 53.3463 25.6948 53.3463 28.0171C53.3463 30.3253 55.1531 32.0255 57.3699 32.0255C59.5875 32.0255 61.3943 30.3253 61.3943 28.0171C61.3943 25.6948 59.5875 24.0087 57.3699 24.0087ZM57.3699 30.4478C56.155 30.4478 55.1079 29.4459 55.1079 28.0181C55.1079 26.5751 56.1559 25.5883 57.3699 25.5883C58.5847 25.5883 59.6318 26.5751 59.6318 28.0181C59.6328 29.445 58.5847 30.4478 57.3699 30.4478ZM46.9289 25.2396V26.9398H50.9986C50.877 27.8965 50.5584 28.5949 50.0721 29.0803C49.4802 29.6721 48.5538 30.3253 46.9289 30.3253C44.4238 30.3253 42.4652 28.3055 42.4652 25.8004C42.4652 23.2952 44.4238 21.2755 46.9289 21.2755C48.2804 21.2755 49.2672 21.807 49.9958 22.4903L51.1956 21.2905C50.1777 20.3188 48.8271 19.5752 46.9289 19.5752C43.4973 19.5752 40.6123 22.3687 40.6123 25.8004C40.6123 29.232 43.4973 32.0255 46.9289 32.0255C48.7809 32.0255 50.1786 31.4176 51.271 30.2791C52.3944 29.1557 52.7441 27.576 52.7441 26.3008C52.7441 25.9069 52.7139 25.5421 52.6527 25.2386H46.9289V25.2396ZM89.6314 26.56C89.2978 25.6647 88.2799 24.0087 86.1998 24.0087C84.1348 24.0087 82.4185 25.6336 82.4185 28.0171C82.4185 30.264 84.1197 32.0255 86.3968 32.0255C88.2337 32.0255 89.2969 30.9021 89.7379 30.2489L88.3713 29.3376C87.9161 30.0058 87.2931 30.4459 86.3968 30.4459C85.5014 30.4459 84.8634 30.0359 84.4534 29.2311L89.8133 27.0143L89.6314 26.56ZM84.165 27.8965C84.1197 26.347 85.3648 25.5582 86.2611 25.5582C86.9595 25.5582 87.5514 25.9078 87.7493 26.4083L84.165 27.8965ZM79.8078 31.7833H81.5684V20.0012H79.8078V31.7833ZM76.9219 24.905H76.8616C76.4667 24.4338 75.707 24.0087 74.7513 24.0087C72.7467 24.0087 70.9097 25.7702 70.9097 28.0331C70.9097 30.28 72.7467 32.0265 74.7513 32.0265C75.708 32.0265 76.4667 31.6014 76.8616 31.116H76.9219V31.6928C76.9219 33.2263 76.1019 34.0463 74.7815 34.0463C73.7033 34.0463 73.0351 33.2725 72.7617 32.6193L71.2283 33.2574C71.6684 34.3196 72.8371 35.6259 74.7815 35.6259C76.8465 35.6259 78.5929 34.411 78.5929 31.4497V24.2528H76.9228V24.905H76.9219ZM74.9031 30.4478C73.6882 30.4478 72.6713 29.4299 72.6713 28.0331C72.6713 26.6203 73.6882 25.5883 74.9031 25.5883C76.1019 25.5883 77.0435 26.6203 77.0435 28.0331C77.0435 29.4299 76.1019 30.4478 74.9031 30.4478ZM97.882 20.0012H93.6681V31.7833H95.4259V27.3197H97.8811C99.8302 27.3197 101.747 25.9088 101.747 23.6609C101.747 21.4131 99.8311 20.0012 97.882 20.0012ZM97.9273 25.6797H95.4259V21.6411H97.9273C99.2421 21.6411 99.9885 22.7297 99.9885 23.6609C99.9885 24.5732 99.2421 25.6797 97.9273 25.6797ZM108.796 23.988C107.523 23.988 106.204 24.5487 105.659 25.7919L107.219 26.4432C107.553 25.7919 108.175 25.5789 108.826 25.5789C109.736 25.5789 110.66 26.1246 110.675 27.0944V27.216C110.357 27.0341 109.675 26.7617 108.841 26.7617C107.159 26.7617 105.446 27.6863 105.446 29.4139C105.446 30.9907 106.825 32.0058 108.371 32.0058C109.553 32.0058 110.205 31.4751 110.614 30.8531H110.675V31.7626H112.373V27.2452C112.374 25.1548 110.811 23.988 108.796 23.988ZM108.583 30.445C108.008 30.445 107.204 30.1566 107.204 29.4441C107.204 28.5346 108.205 28.1858 109.069 28.1858C109.841 28.1858 110.206 28.3526 110.675 28.5798C110.539 29.6721 109.599 30.445 108.583 30.445ZM118.558 24.2453L116.542 29.3536H116.481L114.389 24.2453H112.494L115.632 31.3847L113.843 35.3563H115.677L120.513 24.2453H118.558ZM102.718 31.7833H104.476V20.0012H102.718V31.7833Z" fill="white"/>
<defs>
<filter id="filter0_ii_329_3441" x="11.3101" y="10.6396" width="21.7622" height="24.2422" filterUnits="userSpaceOnUse" color-interpolation-filters="sRGB">
<feFlood flood-opacity="0" result="BackgroundImageFix"/>
<feBlend mode="normal" in="SourceGraphic" in2="BackgroundImageFix" result="shape"/>
<feColorMatrix in="SourceAlpha" type="matrix" values="0 0 0 0 0 0 0 0 0 0 0 0 0 0 0 0 0 0 127 0" result="hardAlpha"/>
<feOffset dy="-0.141374"/>
<feComposite in2="hardAlpha" operator="arithmetic" k2="-1" k3="1"/>
<feColorMatrix type="matrix" values="0 0 0 0 0 0 0 0 0 0 0 0 0 0 0 0 0 0 0.12 0"/>
<feBlend mode="normal" in2="shape" result="effect1_innerShadow_329_3441"/>
<feColorMatrix in="SourceAlpha" type="matrix" values="0 0 0 0 0 0 0 0 0 0 0 0 0 0 0 0 0 0 127 0" result="hardAlpha"/>
<feOffset dy="0.141374"/>
<feComposite in2="hardAlpha" operator="arithmetic" k2="-1" k3="1"/>
<feColorMatrix type="matrix" values="0 0 0 0 1 0 0 0 0 1 0 0 0 0 1 0 0 0 0.25 0"/>
<feBlend mode="normal" in2="effect1_innerShadow_329_3441" result="effect2_innerShadow_329_3441"/>
</filter>
<filter id="filter1_i_329_3441" x="11.7454" y="22.7607" width="15.7266" height="12.1211" filterUnits="userSpaceOnUse" color-interpolation-filters="sRGB">
<feFlood flood-opacity="0" result="BackgroundImageFix"/>
<feBlend mode="normal" in="SourceGraphic" in2="BackgroundImageFix" result="shape"/>
<feColorMatrix in="SourceAlpha" type="matrix" values="0 0 0 0 0 0 0 0 0 0 0 0 0 0 0 0 0 0 127 0" result="hardAlpha"/>
<feOffset dy="-0.141374"/>
<feComposite in2="hardAlpha" operator="arithmetic" k2="-1" k3="1"/>
<feColorMatrix type="matrix" values="0 0 0 0 0 0 0 0 0 0 0 0 0 0 0 0 0 0 0.08 0"/>
<feBlend mode="normal" in2="shape" result="effect1_innerShadow_329_3441"/>
</filter>
<linearGradient id="paint0_linear_329_3441" x1="22.4577" y1="12.1178" x2="6.64075" y2="27.9347" gradientUnits="userSpaceOnUse">
<stop stop-color="#00A0FF"/>
<stop offset="0.0066" stop-color="#00A1FF"/>
<stop offset="0.2601" stop-color="#00BEFF"/>
<stop offset="0.5122" stop-color="#00D2FF"/>
<stop offset="0.7604" stop-color="#00DFFF"/>
<stop offset="1" stop-color="#00E3FF"/>
</linearGradient>
<linearGradient id="paint1_linear_329_3441" x1="33.7986" y1="22.7596" x2="10.9941" y2="22.7596" gradientUnits="userSpaceOnUse">
<stop stop-color="#FFE000"/>
<stop offset="0.4087" stop-color="#FFBD00"/>
<stop offset="0.7754" stop-color="#FFA500"/>
<stop offset="1" stop-color="#FF9C00"/>
</linearGradient>
<linearGradient id="paint2_linear_329_3441" x1="25.3098" y1="24.9227" x2="3.86008" y2="46.3725" gradientUnits="userSpaceOnUse">
<stop stop-color="#FF3A44"/>
<stop offset="1" stop-color="#C31162"/>
</linearGradient>
<linearGradient id="paint3_linear_329_3441" x1="8.78725" y1="4.076" x2="18.3652" y2="13.6539" gradientUnits="userSpaceOnUse">
<stop stop-color="#32A071"/>
<stop offset="0.0685" stop-color="#2DA771"/>
<stop offset="0.4762" stop-color="#15CF74"/>
<stop offset="0.8009" stop-color="#06E775"/>
<stop offset="1" stop-color="#00F076"/>
</linearGradient>
</defs>
</svg>
