<svg width="36" height="36" viewBox="0 0 36 36" fill="none" xmlns="http://www.w3.org/2000/svg">
<g filter="url(#filter0_d_1930_2731)">
<rect x="8" y="6" width="20" height="20" rx="10" fill="white" fill-opacity="0.14" shape-rendering="crispEdges"/>
<rect x="8.5" y="6.5" width="19" height="19" rx="9.5" stroke="url(#paint0_linear_1930_2731)" shape-rendering="crispEdges"/>
<g clip-path="url(#clip0_1930_2731)">
<g clip-path="url(#clip1_1930_2731)">
<g clip-path="url(#clip2_1930_2731)">
<mask id="mask0_1930_2731" style="mask-type:luminance" maskUnits="userSpaceOnUse" x="12" y="10" width="12" height="12">
<path d="M12 10H24V22H12V10Z" fill="white"/>
</mask>
<g mask="url(#mask0_1930_2731)">
<path d="M23 15.54V16C22.9995 17.0782 22.6505 18.1274 22.0051 18.991C21.3596 19.8547 20.4522 20.4866 19.4183 20.7924C18.3844 21.0983 17.2793 21.0617 16.2679 20.6882C15.2564 20.3147 14.3928 19.6242 13.8058 18.7198C13.2189 17.8153 12.94 16.7454 13.0108 15.6695C13.0816 14.5936 13.4983 13.5694 14.1987 12.7497C14.8991 11.93 15.8458 11.3586 16.8975 11.1209C17.9491 10.8831 19.0495 10.9917 20.0344 11.4304" stroke="#007AFF" stroke-width="1.12" stroke-linecap="round" stroke-linejoin="round"/>
<path d="M23 12.0008L20.5 14.5032L19.25 15.7544L18 17.0056L16.5 15.5056" stroke="#007AFF" stroke-width="1.12" stroke-linecap="round" stroke-linejoin="round"/>
</g>
</g>
</g>
</g>
</g>
<defs>
<filter id="filter0_d_1930_2731" x="0" y="0" width="36" height="36" filterUnits="userSpaceOnUse" color-interpolation-filters="sRGB">
<feFlood flood-opacity="0" result="BackgroundImageFix"/>
<feColorMatrix in="SourceAlpha" type="matrix" values="0 0 0 0 0 0 0 0 0 0 0 0 0 0 0 0 0 0 127 0" result="hardAlpha"/>
<feOffset dy="2"/>
<feGaussianBlur stdDeviation="4"/>
<feComposite in2="hardAlpha" operator="out"/>
<feColorMatrix type="matrix" values="0 0 0 0 0 0 0 0 0 0 0 0 0 0 0 0 0 0 0.05 0"/>
<feBlend mode="normal" in2="BackgroundImageFix" result="effect1_dropShadow_1930_2731"/>
<feBlend mode="normal" in="SourceGraphic" in2="effect1_dropShadow_1930_2731" result="shape"/>
</filter>
<linearGradient id="paint0_linear_1930_2731" x1="18" y1="6" x2="18" y2="26" gradientUnits="userSpaceOnUse">
<stop stop-color="white" stop-opacity="0.3"/>
<stop offset="1" stop-color="white" stop-opacity="0"/>
</linearGradient>
<clipPath id="clip0_1930_2731">
<rect width="12" height="12" fill="white" transform="translate(12 10)"/>
</clipPath>
<clipPath id="clip1_1930_2731">
<rect width="12" height="12" fill="white" transform="translate(12 10)"/>
</clipPath>
<clipPath id="clip2_1930_2731">
<rect width="12" height="12" fill="white" transform="translate(12 10)"/>
</clipPath>
</defs>
</svg>
