<svg width="20" height="20" viewBox="0 0 20 20" fill="none" xmlns="http://www.w3.org/2000/svg">
<path d="M18.6748 6.675L18.6748 0.674997M18.6748 0.674997H12.6748M18.6748 0.674997L9.67481 9.67499M7.67481 0.674988H5.47481C3.79465 0.674988 2.95457 0.674988 2.31283 1.00197C1.74835 1.28959 1.28941 1.74853 1.00179 2.31302C0.674805 2.95475 0.674805 3.79483 0.674805 5.47499V13.875C0.674805 15.5551 0.674805 16.3952 1.00179 17.037C1.28941 17.6014 1.74835 18.0604 2.31283 18.348C2.95457 18.675 3.79465 18.675 5.4748 18.675H13.8748C15.555 18.675 16.395 18.675 17.0368 18.348C17.6013 18.0604 18.0602 17.6014 18.3478 17.037C18.6748 16.3952 18.6748 15.5551 18.6748 13.875V11.675" stroke="#D0D3D9" stroke-width="1.35" stroke-linecap="round" stroke-linejoin="round"/>
</svg>
