<svg width="28" height="28" viewBox="0 0 28 28" fill="none" xmlns="http://www.w3.org/2000/svg">
<g clip-path="url(#clip0_2318_3581)">
<path d="M13.9996 6.81042C10.0297 6.81042 6.81078 10.0299 6.81078 13.9998C6.81078 17.9705 10.0297 21.1886 13.9996 21.1886C17.9703 21.1886 21.1898 17.9705 21.1898 13.9998C21.1898 10.0299 17.9703 6.81042 13.9996 6.81042ZM13.9996 18.6666C11.4227 18.6666 9.3328 16.5773 9.3328 13.9998C9.3328 11.4223 11.4227 9.33304 13.9996 9.33304C16.5771 9.33304 18.667 11.4223 18.667 13.9998C18.667 16.5773 16.5771 18.6666 13.9996 18.6666ZM23.1533 6.52675C23.1533 7.45382 22.4009 8.20615 21.4733 8.20615C20.5457 8.20615 19.7933 7.45382 19.7933 6.52675C19.7933 5.59931 20.5456 4.84675 21.4733 4.84675C22.4009 4.84675 23.1533 5.59931 23.1533 6.52675ZM27.2651 4.82953C26.9071 3.90848 26.4284 3.12809 25.6506 2.34967C24.0814 0.779316 21.9345 0.182347 19.7726 0.0844565C18.2791 0.0154409 17.8023 0.000183105 13.9996 0.000183105C10.1982 0.000183105 9.72147 0.0154409 8.22795 0.0844565C6.06085 0.182566 3.91639 0.783253 2.35009 2.34961C0.777656 3.92204 0.183477 6.06235 0.0840547 8.22814C0.0160234 9.72165 0 10.1979 0 13.9998C0 17.8018 0.0160234 18.2787 0.0840547 19.7728C0.183914 21.9462 0.777055 24.0784 2.34998 25.6502C3.92268 27.2217 6.06233 27.8168 8.22795 27.9159C9.72147 27.9842 10.1982 27.9996 13.9996 27.9996C17.8024 27.9996 18.2791 27.9841 19.7726 27.9159C21.9433 27.8165 24.0809 27.2209 25.6505 25.6502C27.2191 24.0805 27.8176 21.9338 27.9157 19.7728C27.984 18.2787 28 17.8017 28 13.9997C28 10.1978 27.984 9.7216 27.9157 8.22808C27.8481 6.73757 27.6113 5.72028 27.2651 4.82953ZM25.3957 19.6571C25.3265 21.1776 24.9733 22.7593 23.8669 23.8671C22.7459 24.9895 21.1877 25.3262 19.6576 25.396C18.181 25.4629 17.7388 25.4776 13.9996 25.4776C10.2618 25.4776 9.81963 25.4628 8.34285 25.396C6.80887 25.3261 5.25317 24.9837 4.13312 23.8672C3.01629 22.754 2.67258 21.1767 2.60416 19.657C2.53728 18.1811 2.52262 17.7383 2.52262 13.9997C2.52262 10.262 2.53734 9.81921 2.60416 8.34243C2.67236 6.82885 3.03248 5.23558 4.1329 4.1333C5.24863 3.01571 6.82052 2.67375 8.34296 2.60429C9.81963 2.53686 10.2618 2.52275 13.9996 2.52275C17.7382 2.52275 18.181 2.53686 19.6577 2.60429C21.1908 2.67424 22.7491 3.01505 23.8667 4.13308C24.9849 5.25166 25.3263 6.81764 25.3957 8.34254C25.4633 9.81921 25.478 10.262 25.478 13.9998C25.478 17.7384 25.4633 18.1812 25.3957 19.6571Z" fill="url(#paint0_linear_2318_3581)"/>
</g>
<defs>
<linearGradient id="paint0_linear_2318_3581" x1="2.35003" y1="25.6502" x2="25.6506" y2="2.34966" gradientUnits="userSpaceOnUse">
<stop stop-color="#FDD91D"/>
<stop offset="0.05" stop-color="#FDD91D"/>
<stop offset="0.4972" stop-color="#EC1C24"/>
<stop offset="0.95" stop-color="#A43A94"/>
<stop offset="1" stop-color="#A43A94"/>
</linearGradient>
<clipPath id="clip0_2318_3581">
<rect width="28" height="28" fill="white"/>
</clipPath>
</defs>
</svg>
