<svg width="18" height="18" viewBox="0 0 18 18" fill="none" xmlns="http://www.w3.org/2000/svg">
<path d="M9.00005 5.91748L8.19755 7.31248C8.01755 7.61998 8.16755 7.87498 8.52005 7.87498H9.47255C9.83255 7.87498 9.97505 8.12998 9.79505 8.43748L9.00005 9.83248" fill="white"/>
<path d="M9.00005 5.91748L8.19755 7.31248C8.01755 7.61998 8.16755 7.87498 8.52005 7.87498H9.47255C9.83255 7.87498 9.97505 8.12998 9.79505 8.43748L9.00005 9.83248" stroke="#D0D3D9" stroke-width="1.125" stroke-linecap="round" stroke-linejoin="round"/>
<path d="M6.22453 13.53V12.66C4.49953 11.6175 3.08203 9.58501 3.08203 7.42501C3.08203 3.71251 6.49453 0.80251 10.3495 1.64251C12.0445 2.01751 13.5295 3.14251 14.302 4.69501C15.8695 7.84501 14.2195 11.19 11.797 12.6525V13.5225C11.797 13.74 11.8795 14.2425 11.077 14.2425H6.94453C6.11953 14.25 6.22453 13.9275 6.22453 13.53Z" stroke="#D0D3D9" stroke-width="1.125" stroke-linecap="round" stroke-linejoin="round"/>
<path d="M6.375 16.5C8.0925 16.0125 9.9075 16.0125 11.625 16.5" stroke="#D0D3D9" stroke-width="1.125" stroke-linecap="round" stroke-linejoin="round"/>
</svg>
