<svg width="56" height="56" viewBox="0 0 56 56" fill="none" xmlns="http://www.w3.org/2000/svg">
<path d="M0 8C0 3.58172 3.58172 0 8 0H48C52.4183 0 56 3.58172 56 8V48C56 52.4183 52.4183 56 48 56H8C3.58172 56 0 52.4183 0 48V8Z" fill="white" fill-opacity="0.12"/>
<path d="M34.6667 25.3333V22.6667C34.6667 18.9848 31.6819 16 28 16C24.3181 16 21.3334 18.9848 21.3334 22.6667V25.3333M28 31.3333V34M23.7334 40H32.2667C34.5069 40 35.627 40 36.4827 39.564C37.2353 39.1805 37.8472 38.5686 38.2307 37.816C38.6667 36.9603 38.6667 35.8402 38.6667 33.6V31.7333C38.6667 29.4931 38.6667 28.373 38.2307 27.5174C37.8472 26.7647 37.2353 26.1528 36.4827 25.7693C35.627 25.3333 34.5069 25.3333 32.2667 25.3333H23.7334C21.4932 25.3333 20.3731 25.3333 19.5174 25.7693C18.7648 26.1528 18.1528 26.7647 17.7693 27.5174C17.3334 28.373 17.3334 29.4931 17.3334 31.7333V33.6C17.3334 35.8402 17.3334 36.9603 17.7693 37.816C18.1528 38.5686 18.7648 39.1805 19.5174 39.564C20.3731 40 21.4932 40 23.7334 40Z" stroke="white" stroke-width="1.5" stroke-linecap="round" stroke-linejoin="round"/>
</svg>
