<svg width="36" height="36" viewBox="0 0 36 36" fill="none" xmlns="http://www.w3.org/2000/svg">
<g clip-path="url(#clip0_329_802)">
<path d="M36 18.0489C36 8.10773 27.9411 0.048851 18 0.048851C8.05888 0.048851 0 8.10773 0 18.0489C0 27.99 8.05888 36.0489 18 36.0489C27.9411 36.0489 36 27.99 36 18.0489Z" fill="#007AFF"/>
<path d="M21.9941 14.6547C21.9941 14.3234 21.7255 14.0547 21.3941 14.0547H15.9941C15.6628 14.0547 15.3941 14.3234 15.3941 14.6547C15.3941 14.9861 15.6628 15.2547 15.9941 15.2547H20.7941V20.0547C20.7941 20.3861 21.0628 20.6547 21.3941 20.6547C21.7255 20.6547 21.9941 20.3861 21.9941 20.0547V14.6547ZM14.6059 21.443L15.0302 21.8672L21.8184 15.079L21.3941 14.6547L20.9699 14.2305L14.1816 21.0187L14.6059 21.443Z" fill="white"/>
</g>
<defs>
<clipPath id="clip0_329_802">
<rect width="36" height="36.8" fill="white" transform="translate(0 -0.400009)"/>
</clipPath>
</defs>
</svg>
