<svg width="40" height="40" viewBox="0 0 40 40" fill="none" xmlns="http://www.w3.org/2000/svg">
<path d="M0 20C0 8.95431 8.95431 0 20 0C31.0457 0 40 8.95431 40 20C40 31.0457 31.0457 40 20 40C8.95431 40 0 31.0457 0 20Z" fill="url(#paint0_linear_452_643)"/>
<path d="M20 0.5C30.7696 0.5 39.5 9.23045 39.5 20C39.5 30.7696 30.7696 39.5 20 39.5C9.23045 39.5 0.5 30.7696 0.5 20C0.5 9.23045 9.23045 0.5 20 0.5Z" stroke="#51A2FF" stroke-opacity="0.3"/>
<path d="M17.5 25L22.5 20L17.5 15" stroke="white" stroke-width="1.66667" stroke-linecap="round" stroke-linejoin="round"/>
<defs>
<linearGradient id="paint0_linear_452_643" x1="20" y1="0" x2="20" y2="40" gradientUnits="userSpaceOnUse">
<stop stop-color="#007AFF"/>
<stop offset="1" stop-color="#0C53C8"/>
</linearGradient>
</defs>
</svg>
