<svg width="60" height="60" viewBox="0 0 60 60" fill="none" xmlns="http://www.w3.org/2000/svg">
<g filter="url(#filter0_i_716_425)">
<path fill-rule="evenodd" clip-rule="evenodd" d="M30.2923 15.7227C33.9615 15.789 37.458 17.2931 40.0294 19.9114C42.6008 22.5297 44.0416 26.0529 44.0416 29.7227C44.0416 33.3925 42.6008 36.9157 40.0294 39.5339C37.458 42.1522 33.9615 43.6564 30.2923 43.7227C26.623 43.6564 23.1265 42.1522 20.5551 39.5339C17.9837 36.9157 16.543 33.3925 16.543 29.7227C16.543 26.0529 17.9837 22.5297 20.5551 19.9114C23.1265 17.2931 26.623 15.789 30.2923 15.7227ZM27.3848 34.2705L23.9563 30.8389C23.6756 30.5573 23.518 30.1759 23.518 29.7783C23.518 29.3807 23.6756 28.9994 23.9563 28.7177C24.2383 28.4374 24.6199 28.28 25.0176 28.28C25.4153 28.28 25.7969 28.4374 26.0789 28.7177L28.4942 31.136L34.5056 25.1246C34.7872 24.8439 35.1686 24.6864 35.5662 24.6864C35.9637 24.6864 36.3451 24.8439 36.6267 25.1246C36.907 25.4064 37.0643 25.7877 37.0643 26.1852C37.0643 26.5826 36.907 26.9639 36.6267 27.2457L29.5532 34.3193C29.4096 34.4621 29.2387 34.5745 29.0506 34.6497C28.8625 34.7248 28.6611 34.7612 28.4586 34.7567C28.2561 34.7521 28.0566 34.7067 27.8721 34.6232C27.6876 34.5396 27.5219 34.4197 27.3848 34.2705Z" fill="url(#paint0_linear_716_425)"/>
</g>
<g filter="url(#filter1_i_716_425)">
<path d="M60 30C60 35.9334 58.2405 41.7336 54.9441 46.6671C51.6477 51.6006 46.9623 55.4458 41.4805 57.7164C35.9987 59.987 29.9667 60.5811 24.1473 59.4236C18.3279 58.266 12.9824 55.4088 8.78681 51.2132C4.59123 47.0176 1.73401 41.6721 0.576455 35.8527C-0.581102 30.0333 0.0129986 24.0013 2.28363 18.5195C4.55426 13.0377 8.39943 8.35235 13.3329 5.05591C18.2664 1.75947 24.0666 0 30 0C37.9549 0.00529795 45.5824 3.1677 51.2074 8.79265C56.8323 14.4176 59.9947 22.0451 60 30Z" fill="url(#paint1_linear_716_425)"/>
</g>
<path d="M30 0.571289C37.8033 0.576583 45.2859 3.67851 50.8037 9.19629C56.3215 14.7141 59.4234 22.1967 59.4287 30C59.4287 35.8204 57.7024 41.5101 54.4688 46.3496C51.2351 51.1891 46.6391 54.9611 41.2617 57.1885C35.8844 59.4158 29.9673 59.9988 24.2588 58.8633C18.5502 57.7278 13.3061 54.9252 9.19043 50.8096C5.07477 46.6939 2.27223 41.4498 1.13672 35.7412C0.00123278 30.0327 0.584187 24.1156 2.81152 18.7383C5.03889 13.3609 8.81093 8.7649 13.6504 5.53125C18.3388 2.39859 23.825 0.680406 29.4551 0.576172L30 0.571289Z" stroke="url(#paint2_linear_716_425)" stroke-opacity="0.1" stroke-width="1.14286"/>
<defs>
<filter id="filter0_i_716_425" x="16.543" y="15.7227" width="27.499" height="32" filterUnits="userSpaceOnUse" color-interpolation-filters="sRGB">
<feFlood flood-opacity="0" result="BackgroundImageFix"/>
<feBlend mode="normal" in="SourceGraphic" in2="BackgroundImageFix" result="shape"/>
<feColorMatrix in="SourceAlpha" type="matrix" values="0 0 0 0 0 0 0 0 0 0 0 0 0 0 0 0 0 0 127 0" result="hardAlpha"/>
<feOffset dy="4"/>
<feGaussianBlur stdDeviation="2"/>
<feComposite in2="hardAlpha" operator="arithmetic" k2="-1" k3="1"/>
<feColorMatrix type="matrix" values="0 0 0 0 0 0 0 0 0 0 0 0 0 0 0 0 0 0 0.05 0"/>
<feBlend mode="normal" in2="shape" result="effect1_innerShadow_716_425"/>
</filter>
<filter id="filter1_i_716_425" x="0" y="0" width="60" height="64.5714" filterUnits="userSpaceOnUse" color-interpolation-filters="sRGB">
<feFlood flood-opacity="0" result="BackgroundImageFix"/>
<feBlend mode="normal" in="SourceGraphic" in2="BackgroundImageFix" result="shape"/>
<feColorMatrix in="SourceAlpha" type="matrix" values="0 0 0 0 0 0 0 0 0 0 0 0 0 0 0 0 0 0 127 0" result="hardAlpha"/>
<feOffset dy="4.57143"/>
<feGaussianBlur stdDeviation="2.28571"/>
<feComposite in2="hardAlpha" operator="arithmetic" k2="-1" k3="1"/>
<feColorMatrix type="matrix" values="0 0 0 0 1 0 0 0 0 1 0 0 0 0 1 0 0 0 0.05 0"/>
<feBlend mode="normal" in2="shape" result="effect1_innerShadow_716_425"/>
</filter>
<linearGradient id="paint0_linear_716_425" x1="30.2923" y1="15.7227" x2="30.2923" y2="43.7227" gradientUnits="userSpaceOnUse">
<stop stop-color="#007AFF"/>
<stop offset="1" stop-color="#0C53C8"/>
</linearGradient>
<linearGradient id="paint1_linear_716_425" x1="4.20801" y1="-0.735999" x2="52.746" y2="57.108" gradientUnits="userSpaceOnUse">
<stop stop-color="white" stop-opacity="0.2"/>
<stop offset="0.3" stop-color="white" stop-opacity="0.1"/>
<stop offset="0.5" stop-opacity="0.1"/>
<stop offset="0.8" stop-color="#007AFF" stop-opacity="0.1"/>
<stop offset="1" stop-color="#007AFF" stop-opacity="0.4"/>
</linearGradient>
<linearGradient id="paint2_linear_716_425" x1="30" y1="0" x2="30" y2="60" gradientUnits="userSpaceOnUse">
<stop stop-color="white"/>
<stop offset="1" stop-color="white" stop-opacity="0"/>
</linearGradient>
</defs>
</svg>
