<svg width="44" height="44" viewBox="0 0 44 44" fill="none" xmlns="http://www.w3.org/2000/svg">
<rect width="44" height="44" rx="22" fill="white" fill-opacity="0.06"/>
<path d="M30.3334 24.5V19.5C30.3334 15.3333 28.6667 13.6667 24.5 13.6667H19.5C15.3334 13.6667 13.6667 15.3333 13.6667 19.5V24.5C13.6667 28.6667 15.3334 30.3333 19.5 30.3333H24.5C28.6667 30.3333 30.3334 28.6667 30.3334 24.5Z" stroke="white" stroke-width="1.25" stroke-linecap="round" stroke-linejoin="round"/>
<path d="M14.1 17.925H29.9" stroke="white" stroke-width="1.25" stroke-linecap="round" stroke-linejoin="round"/>
<path d="M19.1 13.7583V17.8083" stroke="white" stroke-width="1.25" stroke-linecap="round" stroke-linejoin="round"/>
<path d="M24.9 13.7583V17.4333" stroke="white" stroke-width="1.875" stroke-linecap="round" stroke-linejoin="round"/>
<path d="M20.125 24.0417V23.0417C20.125 21.7583 21.0333 21.2333 22.1417 21.875L23.0083 22.375L23.875 22.875C24.9833 23.5167 24.9833 24.5667 23.875 25.2083L23.0083 25.7083L22.1417 26.2083C21.0333 26.85 20.125 26.325 20.125 25.0417V24.0417V24.0417Z" stroke="white" stroke-width="1.875" stroke-miterlimit="10" stroke-linecap="round" stroke-linejoin="round"/>
</svg>
