<svg width="28" height="28" viewBox="0 0 28 28" fill="none" xmlns="http://www.w3.org/2000/svg">
<path d="M20.0979 1.28351H7.90258C4.2619 1.28351 1.31055 4.23486 1.31055 7.87554V20.0709C1.31055 23.7115 4.2619 26.6629 7.90258 26.6629H20.0979C23.7386 26.6629 26.6899 23.7115 26.6899 20.0709V7.87554C26.6899 4.23486 23.7386 1.28351 20.0979 1.28351Z" fill="#FFFD00"/>
<path d="M22.8857 18.3679C22.7801 18.3548 21.4971 18.2487 20.1754 16.543C18.8536 14.8373 19.3687 14.5332 19.4349 14.3746C19.5011 14.216 20.3378 13.9748 20.8759 13.7665C21.6962 13.4487 21.6563 12.8805 21.5239 12.5699C21.3916 12.2593 20.8496 11.9809 20.1092 12.2965C19.4059 12.5978 19.1303 12.3627 19.1303 12.3627C19.1303 12.3627 19.3047 9.75953 19.2096 9.24218C18.3871 4.65882 14 5.03945 14 5.03945C14 5.03945 9.61301 4.65664 8.79051 9.24382C8.69754 9.75953 8.8698 12.3648 8.8698 12.3648C8.8698 12.3648 8.59637 12.6 7.8909 12.2987C7.15043 11.9809 6.60848 12.2593 6.47613 12.5721C6.34379 12.8849 6.30441 13.4509 7.12418 13.7687C7.6623 13.977 8.49957 14.2182 8.56519 14.3768C8.63082 14.5354 9.14707 14.8394 7.82473 16.5452C6.50238 18.2509 5.21996 18.3569 5.11441 18.3701C5.00887 18.3832 4.47949 18.3963 4.47949 18.7529C4.47949 19.1094 4.65395 19.7023 6.79387 20.0752C7.13129 20.1337 7.09793 20.3793 7.09793 20.3793C7.09793 20.3793 7.09793 21.2259 7.54746 21.3051C7.99699 21.3844 8.79051 21.1066 9.38551 21.1728C9.98051 21.239 10.3239 21.1597 11.4877 22.085C12.6514 23.0103 14 22.96 14 22.96C14 22.96 15.3486 23.0147 16.5124 22.085C17.6761 21.1553 18.0196 21.239 18.6146 21.1728C19.2096 21.1066 20.0031 21.3828 20.4532 21.3035C20.9032 21.2242 20.9027 20.3777 20.9027 20.3777C20.9027 20.3777 20.8693 20.1321 21.2068 20.0736C23.3467 19.7006 23.5211 19.1084 23.5211 18.7512C23.5211 18.3941 22.9918 18.381 22.8857 18.3679Z" fill="white"/>
<path d="M13.7561 5.50758C13.8841 5.50758 13.959 5.51359 13.959 5.51359L14 5.51687L14.04 5.51359C14.04 5.51359 14.1154 5.50758 14.2439 5.50758C14.6268 5.50758 15.6286 5.56227 16.5851 6.0818C17.7418 6.70797 18.4669 7.80063 18.7414 9.32805C18.7961 9.64414 18.725 11.276 18.6556 12.3359L18.6397 12.5743L18.8213 12.7291C18.876 12.7766 19.0871 12.9309 19.4721 12.9309C19.7571 12.923 20.0376 12.8577 20.2968 12.7389C20.4356 12.6754 20.586 12.6408 20.7386 12.6372C20.9711 12.6372 21.0739 12.7362 21.0859 12.7591C21.1253 12.844 21.1306 12.9407 21.1007 13.0293C21.0542 13.1387 20.9136 13.2442 20.7042 13.3252C20.562 13.3798 20.3908 13.44 20.2257 13.498C19.4688 13.7605 19.1407 13.8846 19.0078 14.1641L19.0023 14.1717C18.9214 14.2931 18.7321 14.5764 18.8339 15.0845C18.9257 15.5433 19.2413 16.1159 19.7991 16.8345C21.0722 18.4751 22.3366 18.7841 22.8211 18.8393H22.8266L22.8813 18.8448C22.9436 18.8502 22.9907 18.8568 23.0251 18.8634C22.9896 18.9293 22.9385 18.9856 22.8764 19.0274C22.6691 19.1871 22.1977 19.4163 21.1264 19.6027C20.5795 19.6984 20.4154 20.1086 20.4275 20.3913C20.4236 20.5581 20.3804 20.7599 20.3339 20.8376C20.3164 20.8376 20.2946 20.8376 20.2678 20.8376C20.0699 20.8288 19.873 20.8063 19.6782 20.7703C19.3923 20.7198 19.1029 20.6912 18.8125 20.685C18.7283 20.6847 18.6442 20.6891 18.5604 20.6981C18.497 20.7052 18.433 20.7107 18.3718 20.7162C17.7571 20.7709 17.2747 20.8671 16.2143 21.7109C15.2934 22.4438 14.2407 22.4809 14.0394 22.4809H13.9574C13.7561 22.4809 12.7034 22.4438 11.7825 21.7109C10.7221 20.8671 10.2397 20.7692 9.62504 20.7162C9.56379 20.7107 9.50035 20.7052 9.43637 20.6981C9.35263 20.6891 9.26847 20.6847 9.18426 20.685C8.89493 20.6927 8.60661 20.7225 8.32184 20.7741C8.12712 20.8102 7.93013 20.8326 7.7323 20.8414C7.70551 20.8414 7.68363 20.8414 7.66613 20.8414C7.61965 20.7638 7.5759 20.5614 7.57207 20.3952C7.58738 20.113 7.42059 19.7023 6.87371 19.6066C5.80184 19.4201 5.33043 19.1909 5.12371 19.0312C5.06213 18.9893 5.01165 18.933 4.9766 18.8672C5.0116 18.8606 5.05809 18.8541 5.12043 18.8486L5.17512 18.8431H5.18113C5.66566 18.7884 6.93113 18.4811 8.20316 16.8383C8.76098 16.1191 9.07816 15.5466 9.1684 15.0883C9.27012 14.5802 9.0809 14.297 8.99996 14.1755L8.99449 14.1679C8.8616 13.889 8.53512 13.7648 7.7766 13.4996C7.61254 13.4416 7.44027 13.3815 7.29809 13.3268C7.08863 13.2459 6.94809 13.1403 6.9016 13.0309C6.87169 12.9429 6.87678 12.8468 6.91582 12.7624C6.9284 12.7378 7.03121 12.6388 7.26363 12.6388C7.41629 12.6425 7.56662 12.6771 7.70551 12.7405C7.96471 12.8593 8.24519 12.9246 8.53019 12.9325C8.91301 12.9325 9.12574 12.7783 9.18098 12.7307L9.36254 12.5759L9.34668 12.3375C9.27723 11.2804 9.20449 9.64852 9.26082 9.32969C9.53426 7.80172 10.2605 6.70961 11.4171 6.08344C12.3736 5.565 13.3733 5.50922 13.7583 5.50922M14.2439 5.03125C14.0886 5.03125 14 5.03945 14 5.03945C14 5.03945 13.9109 5.03125 13.7561 5.03125C12.8232 5.03125 9.49598 5.31125 8.79051 9.24219C8.69754 9.75789 8.8698 12.3632 8.8698 12.3632C8.8698 12.3632 8.76754 12.4507 8.52801 12.4507C8.30746 12.4428 8.09077 12.3906 7.8909 12.297C7.69283 12.2078 7.47864 12.16 7.26144 12.1565C6.85184 12.1565 6.56691 12.355 6.47613 12.5683C6.34379 12.8789 6.30441 13.4471 7.12418 13.7648C7.6623 13.9732 8.49957 14.2144 8.56519 14.373C8.63082 14.5316 9.14707 14.8356 7.82473 16.5413C6.50238 18.247 5.21996 18.3531 5.11441 18.3663C5.00887 18.3794 4.47949 18.3925 4.47949 18.7491C4.47949 19.1056 4.65395 19.6984 6.79387 20.0714C7.13129 20.1299 7.09793 20.3755 7.09793 20.3755C7.09793 20.3755 7.09793 21.222 7.54746 21.3013C7.60911 21.3113 7.67149 21.3161 7.73394 21.3155C8.13809 21.3155 8.70301 21.1586 9.1859 21.1586C9.25257 21.1584 9.31921 21.1619 9.38551 21.169C9.98051 21.2352 10.3239 21.1559 11.4877 22.0812C12.5317 22.9119 13.7255 22.9562 13.959 22.9562H14.0411C14.2746 22.9562 15.4679 22.9135 16.5124 22.0812C17.6761 21.1559 18.0196 21.2352 18.6146 21.169C18.6809 21.1619 18.7475 21.1584 18.8142 21.1586C19.2971 21.1586 19.862 21.3155 20.2661 21.3155C20.3286 21.3161 20.391 21.3114 20.4526 21.3013C20.9021 21.222 20.9021 20.3755 20.9021 20.3755C20.9021 20.3755 20.8688 20.1299 21.2062 20.0714C23.3461 19.6984 23.5206 19.1062 23.5206 18.7491C23.5206 18.392 22.9918 18.3788 22.8857 18.3663C22.7796 18.3537 21.4971 18.247 20.1754 16.5413C18.8536 14.8356 19.3687 14.5316 19.4349 14.373C19.5011 14.2144 20.3378 13.9732 20.8759 13.7648C21.6962 13.4471 21.6563 12.8789 21.5239 12.5683C21.4332 12.355 21.1482 12.1565 20.7386 12.1565C20.5214 12.16 20.3072 12.2078 20.1092 12.297C19.9093 12.3906 19.6926 12.4428 19.4721 12.4507C19.2325 12.4507 19.1303 12.3632 19.1303 12.3632C19.1303 12.3632 19.3047 9.75953 19.2096 9.24219C18.5041 5.31016 15.1769 5.03125 14.2439 5.03125Z" fill="black"/>
</svg>
