<svg width="18" height="18" viewBox="0 0 18 18" fill="none" xmlns="http://www.w3.org/2000/svg">
<path d="M16.5 11.25V6.75C16.5 3 15 1.5 11.25 1.5H6.75C3 1.5 1.5 3 1.5 6.75V11.25C1.5 15 3 16.5 6.75 16.5H11.25C15 16.5 16.5 15 16.5 11.25Z" stroke="white" stroke-width="1.125" stroke-linecap="round" stroke-linejoin="round"/>
<path d="M1.88965 5.33252H16.1096" stroke="white" stroke-width="1.125" stroke-linecap="round" stroke-linejoin="round"/>
<path d="M6.38965 1.58252V5.22752" stroke="white" stroke-width="1.125" stroke-linecap="round" stroke-linejoin="round"/>
<path d="M11.6104 1.58252V4.89002" stroke="white" stroke-width="1.6875" stroke-linecap="round" stroke-linejoin="round"/>
<path d="M7.3125 10.8375V9.93753C7.3125 8.78253 8.13 8.31003 9.1275 8.88753L9.9075 9.33753L10.6875 9.78753C11.685 10.365 11.685 11.31 10.6875 11.8875L9.9075 12.3375L9.1275 12.7875C8.13 13.365 7.3125 12.8925 7.3125 11.7375V10.8375V10.8375Z" stroke="white" stroke-width="1.6875" stroke-miterlimit="10" stroke-linecap="round" stroke-linejoin="round"/>
</svg>
