<svg width="38" height="38" viewBox="0 0 38 38" fill="none" xmlns="http://www.w3.org/2000/svg">
<g clip-path="url(#clip0_329_909)">
<path d="M38 19.0515C38 8.5581 29.4934 0.0515137 19 0.0515137C8.50659 0.0515137 0 8.5581 0 19.0515C0 29.5449 8.50659 38.0515 19 38.0515C29.4934 38.0515 38 29.5449 38 19.0515Z" fill="white"/>
<path d="M23.216 15.4689C23.216 15.1191 22.9324 14.8356 22.5827 14.8356H16.8827C16.5329 14.8356 16.2493 15.1191 16.2493 15.4689C16.2493 15.8187 16.5329 16.1022 16.8827 16.1022H21.9493V21.1689C21.9493 21.5187 22.2329 21.8022 22.5827 21.8022C22.9324 21.8022 23.216 21.5187 23.216 21.1689V15.4689ZM15.4173 22.6343L15.8652 23.0821L23.0305 15.9168L22.5827 15.4689L22.1348 15.0211L14.9695 22.1865L15.4173 22.6343Z" fill="black"/>
</g>
<defs>
<clipPath id="clip0_329_909">
<rect width="38" height="38.8444" fill="white" transform="translate(0 -0.422241)"/>
</clipPath>
</defs>
</svg>
