<svg xmlns="http://www.w3.org/2000/svg"  viewBox="0 0 80 80" width="40px" height="40px"><path fill="#ffeea3" d="M19.714,75.5C11.325,75.5,4.5,68.675,4.5,60.286V19.714C4.5,11.325,11.325,4.5,19.714,4.5h40.571 c8.39,0,15.214,6.825,15.214,15.214v40.571c0,8.39-6.825,15.214-15.214,15.214H19.714z"/><path fill="#ba9b48" d="M60.286,76H19.714C11.049,76,4,68.951,4,60.286V19.714C4,11.049,11.049,4,19.714,4h40.571 C68.951,4,76,11.049,76,19.714v40.571C76,68.951,68.951,76,60.286,76z M19.714,5C11.601,5,5,11.601,5,19.714v40.571 C5,68.399,11.601,75,19.714,75h40.571C68.399,75,75,68.399,75,60.286V19.714C75,11.601,68.399,5,60.286,5H19.714z"/><g><path fill="#fff1e8" d="M39.876,65.5c-0.144,0-0.288,0-0.432,0c-0.144,0-0.144,0-0.288,0c-3.313,0-5.009-1.013-7.026-2.454 c-1.441-1.008-2.737-1.873-4.178-2.161c-0.72-0.144-1.441-0.144-2.305-0.144c-1.296,0-2.305,0.514-3.025,0.659 c-0.432,0.144-0.864,0.1-1.152,0.1s-0.72-0.326-0.864-0.903c-0.144-0.432-0.288-0.864-0.288-1.296 c-0.288-1.008-0.432-1.729-0.864-1.729c-5.186-0.864-6.665-1.873-6.953-2.593c0-0.144,0.038-0.144,0.038-0.288 c0-0.288,0.144-0.576,0.432-0.576c7.923-1.296,11.38-9.364,11.668-9.796l0,0c0.432-1.008,0.576-1.873,0.288-2.593 c-0.576-1.296-2.305-1.359-3.457-1.647c-0.288-0.144-0.576-0.144-0.72-0.288c-2.449-0.864-2.17-1.873-2.17-2.305 c0.144-0.864,0.873-1.441,1.737-1.441c0.288,0,0.878,0.09,1.075,0.144c1.358,0.377,1.518,0.206,2.383,0.206 c1.152,0,2.821-1.352,2.965-1.496c0-0.576,0.144-0.248,0-0.824c-0.288-3.745-0.204-9.274,0.524-11.13 c3.601-7.923,9.908-8.446,12.068-8.446h1.008h0.144c2.161,0,8.654,0.577,12.111,8.5c1.152,2.593,0.772,11.375,0.663,11.9 c0,0,1.63,1.208,2.639,1.352c0.72,0,1.647,0.057,2.593-0.142c0.698-0.147,1.585-0.144,1.873,0l0.296,0.117 c0.864,0.288,0.839,0.747,0.839,1.323s-0.271,1.441-2.288,2.161c-0.144,0.144-0.432,0.144-0.72,0.288 c-1.152,0.432-2.881,0.286-3.457,1.582c-0.288,0.72-0.144,1.585,0.288,2.593l0,0c0.144,0.288,3.745,8.355,11.668,9.796 c0.288,0,0.576,0.288,0.432,0.576c0,0.144,0,0.288-0.144,0.288c-0.288,0.72-1.729,1.873-6.915,2.593 c-0.432,0-0.576,0.576-0.864,1.729c-0.144,0.432-0.144,0.864-0.288,1.296c-0.144,0.432-0.288,1.047-0.72,1.047 c0,0-0.72,0.044-1.152-0.1c-0.864-0.144-1.873-0.803-3.025-0.803c-0.72,0-1.441,0-2.161,0.144 c-1.585,0.288-2.881,1.152-4.178,2.161C45.527,64.487,43.189,65.5,39.876,65.5z"/><path fill="#a16a4a" d="M39.876,66h-0.72c-3.475,0-5.296-1.104-7.316-2.547c-1.449-1.014-2.666-1.813-3.985-2.077 c-0.671-0.134-1.349-0.134-2.207-0.134c-0.811,0-1.5,0.221-2.108,0.417c-0.303,0.097-0.577,0.184-0.819,0.232 c-0.295,0.103-0.64,0.116-0.869,0.116L21.47,62c-0.499,0-1.141-0.449-1.349-1.281c-0.137-0.407-0.288-0.86-0.302-1.345 l-0.078-0.276c-0.118-0.424-0.265-0.953-0.375-1.055c-4.446-0.719-6.846-1.667-7.33-2.877L12,54.979 c0-0.127,0.019-0.208,0.036-0.273c0.002-0.628,0.403-1.091,0.935-1.091c4.489-0.741,8.347-3.941,11.076-9.248 c0.087-0.169,0.147-0.281,0.177-0.325c0.363-0.868,0.456-1.591,0.24-2.13c-0.354-0.797-1.388-0.998-2.388-1.193 c-0.255-0.05-0.501-0.098-0.726-0.154l-0.103-0.038c-0.096-0.048-0.192-0.072-0.278-0.097c-0.151-0.042-0.318-0.089-0.468-0.197 c-2.208-0.801-2.465-1.788-2.423-2.65l0.01-0.179c0.182-1.095,1.1-1.859,2.23-1.859c0.343,0,0.976,0.098,1.208,0.162 c1.083,0.301,1.285,0.235,1.658,0.211c0.171-0.011,0.356-0.022,0.591-0.022c0.781,0,2.019-0.862,2.474-1.232 c0.013-0.146,0.037-0.232,0.062-0.307c-0.01,0.029-0.026-0.043-0.056-0.161c-0.271-3.43-0.273-9.353,0.543-11.434 C30.265,15.135,36.139,14,39.333,14h1.152c2.625,0,9.104,0.857,12.57,8.8c1.12,2.521,0.872,10.102,0.731,11.861 c0.546,0.377,1.564,1.008,2.184,1.096l0.332-0.001l0.458,0.004c0.452,0,1.044-0.016,1.629-0.139c0.789-0.165,1.797-0.16,2.2,0.042 l0.257,0.1C62.001,36.148,62,36.932,62,37.505c0,1.169-0.83,2.021-2.537,2.648c-0.15,0.108-0.318,0.155-0.469,0.198 c-0.086,0.024-0.183,0.049-0.278,0.097c-0.424,0.162-0.841,0.245-1.244,0.325c-1.044,0.208-1.698,0.379-1.979,1.013 c-0.208,0.522-0.116,1.245,0.291,2.193c0.659,1.386,4.229,8.215,11.298,9.5c0.234-0.043,0.575,0.175,0.75,0.459 c0.137,0.222,0.167,0.476,0.089,0.714c-0.022,0.311-0.143,0.481-0.276,0.574c-0.695,1.208-3.176,2.138-7.21,2.698 c-0.133,0.096-0.293,0.735-0.448,1.353c-0.075,0.229-0.104,0.42-0.136,0.611c-0.04,0.242-0.083,0.483-0.163,0.724l-0.045,0.138 c-0.149,0.467-0.397,1.247-1.145,1.25c-0.003,0-0.11,0.006-0.26,0.006c-0.437,0-0.792-0.044-1.055-0.132 c-0.311-0.045-0.695-0.189-1.102-0.342c-0.568-0.213-1.156-0.434-1.765-0.434c-0.715,0-1.392,0-2.063,0.134 c-1.424,0.259-2.615,1.013-3.968,2.065C46.098,64.713,43.596,66,39.876,66z M25.647,60.242c0.877,0,1.634,0,2.403,0.154 c1.51,0.302,2.816,1.156,4.366,2.241C34.355,64.021,35.971,65,39.156,65h0.72c3.268,0,5.493-1.006,7.829-2.518 c1.434-1.118,2.744-1.939,4.359-2.232c0.76-0.152,1.518-0.152,2.25-0.152c0.791,0,1.495,0.265,2.117,0.498 c0.359,0.135,0.699,0.263,0.99,0.311c0.23,0.07,0.5,0.1,0.815,0.1c0.129,0,0.219-0.005,0.226-0.005 c0.066-0.052,0.175-0.392,0.227-0.555l0.049-0.15c0.063-0.19,0.093-0.382,0.125-0.572c0.04-0.242,0.083-0.483,0.163-0.725 c0.318-1.278,0.517-2.07,1.339-2.07c5.581-0.78,6.353-2.035,6.45-2.278l0.078-0.194c-7.571-1.425-11.321-8.59-11.999-10.018 c-0.554-1.287-0.647-2.232-0.324-3.042c0.52-1.171,1.732-1.412,2.706-1.605c0.381-0.076,0.741-0.147,1.04-0.26 c0.109-0.058,0.266-0.104,0.407-0.144c0.059-0.017,0.139-0.039,0.164-0.052l0.157-0.095C61,38.542,61,37.796,61,37.551 c0-0.573,0.001-0.683-0.498-0.849l-0.322-0.127c-0.073-0.032-0.248-0.074-0.603-0.074c-0.327,0-0.686,0.036-0.983,0.098 c-0.674,0.142-1.334,0.161-1.834,0.161l-0.861-0.008c-1.172-0.163-2.759-1.319-2.937-1.451l-0.257-0.19l0.065-0.313 c0.099-0.548,0.454-9.155-0.63-11.595C48.909,15.799,42.913,15,40.485,15h-1.152c-2.953,0-8.389,1.059-11.613,8.152 c-0.655,1.673-0.781,6.987-0.48,10.885c0.076,0.275,0.092,0.42,0.021,0.634c-0.007,0.021-0.02,0.062-0.02,0.229v0.208l-0.147,0.146 c-0.017,0.017-1.878,1.643-3.318,1.643c-0.209,0-0.375,0.011-0.527,0.021c-0.584,0.038-1.088,0.005-1.989-0.245 c-0.159-0.044-0.705-0.126-0.941-0.126c-0.632,0-1.144,0.421-1.244,1.023l0.002,0.064c-0.019,0.381-0.05,1.02,1.841,1.687 l0.187,0.118c-0.001-0.007,0.076,0.013,0.135,0.03c0.125,0.035,0.262,0.075,0.4,0.138c0.196,0.047,0.408,0.088,0.627,0.131 c1.134,0.221,2.544,0.496,3.118,1.786c0.331,0.827,0.238,1.772-0.286,2.993c-0.064,0.114-0.104,0.194-0.163,0.309 c-2.88,5.6-6.99,8.982-11.885,9.784c-0.001,0-0.002,0-0.002,0c-0.006,0.021-0.01,0.049-0.01,0.083c0,0.086-0.009,0.151-0.02,0.204 c0.259,0.391,1.414,1.333,6.516,2.184c0.003,0,0.006,0,0.009,0c0.673,0,0.899,0.812,1.16,1.75l0.113,0.471 c0,0.351,0.127,0.733,0.262,1.138c0.102,0.4,0.341,0.552,0.401,0.562l0.371,0.006c0.172,0,0.397-0.009,0.612-0.081 c0.271-0.058,0.507-0.135,0.77-0.22C23.878,60.499,24.68,60.242,25.647,60.242z"/></g></svg>